<svg id="Layer_1" data-name="Layer 1" xmlns="http://www.w3.org/2000/svg" viewBox="0 0 300 200"><defs><style>.cls-1,.cls-10,.cls-8{fill:#fff;}.cls-1,.cls-6,.cls-8{stroke:#3c4043;stroke-miterlimit:10;}.cls-2{fill:#f6aea9;}.cls-3{fill:#fde293;}.cls-4{fill:#a8dab5;}.cls-5{fill:#e8eaed;}.cls-6{fill:none;}.cls-7{fill:#4283f2;}.cls-8{stroke-linecap:round;}.cls-9{fill:#fc2c25;}</style></defs><rect class="cls-1" x="27.86" y="19.65" width="241.28" height="163.35"/><path class="cls-2" d="M45.21,28.91A3.88,3.88,0,1,1,41.33,25a3.88,3.88,0,0,1,3.88,3.87"/><path class="cls-3" d="M57.06,28.91A3.88,3.88,0,1,1,53.19,25a3.88,3.88,0,0,1,3.87,3.87"/><path class="cls-4" d="M68.92,28.91A3.88,3.88,0,1,1,65,25a3.88,3.88,0,0,1,3.88,3.87"/><rect class="cls-5" x="40.47" y="76.13" width="87.19" height="3.77"/><line class="cls-6" x1="28.38" y1="39.05" x2="269.66" y2="39.05"/><rect class="cls-7" x="40.47" y="52.17" width="217.67" height="12.56"/><line class="cls-8" x1="40.47" y1="92.8" x2="215.36" y2="92.8"/><line class="cls-8" x1="40.47" y1="105.63" x2="205.36" y2="105.63"/><line class="cls-8" x1="40.47" y1="118.47" x2="215.36" y2="118.47"/><line class="cls-8" x1="40.47" y1="131.31" x2="128.52" y2="131.31"/><circle class="cls-9" cx="259.37" cy="167.35" r="25.84"/><path class="cls-10" d="M261.86,166.72l7.21-7.22a1.86,1.86,0,0,0-2.63-2.63l-7.22,7.21L252,156.87a1.86,1.86,0,0,0-2.64,2.63l7.22,7.22-7.22,7.21a1.87,1.87,0,1,0,2.64,2.64l7.21-7.22,7.22,7.22a1.86,1.86,0,1,0,2.63-2.64Z"/></svg>