<?xml version="1.0" ?><svg xmlns="http://www.w3.org/2000/svg" xmlns:xlink="http://www.w3.org/1999/xlink" version="1.1" viewBox="0 0 512 512" style="enable-background:new 0 0 512 512;" xml:space="preserve"><g id="_x33_5_x2C__Megaphone_x2C__advertising_x2C__online_shopping_x2C__mega_x2C__marketing_x2C__call_to_action"><g><path id="XMLID_556_" style="fill:#CDDCF9;" d="M349.749,52.512c-13.65,0-26.29,10.6-36.66,28.64c-0.01,0-0.01,0-0.02,0.01    c-10.72,18.67-28.14,45.33-32.57,76.47v104.76c4.43,31.14,21.85,57.8,32.57,76.47c10.38,18.05,23.03,28.65,36.68,28.65    c35.21,0,63.75-70.52,63.75-157.5S384.959,52.512,349.749,52.512z"/><path id="XMLID_557_" style="fill:#FFFFFF;" d="M289.619,157.632l-21.62,52.38l21.62,52.38c27.3-1.86,48.88-24.61,48.88-52.38    S316.919,159.492,289.619,157.632z"/><path id="XMLID_558_" style="fill:#CDDCF9;" d="M148.249,256.512l-64.75,35.65v137.35c0,16.56,13.42,29.98,29.98,29.98    c13.374,0,25.077-8.845,28.79-21.64l32.68-159.79L148.249,256.512z"/><path id="XMLID_559_" style="fill:#FFFFFF;" d="M313.069,81.162c-10.72,18.67-19.02,45.33-23.45,76.47    c-4.825,33.649-4.834,71.046,0,104.76c4.43,31.14,12.73,57.8,23.45,76.47c-42.034-39.938-97.262-61.35-153.64-61.35h-40.93v-135    h40.93C216.619,142.512,271.609,120.552,313.069,81.162z"/><path id="XMLID_560_" style="fill:#FFFFFF;" d="M128.499,142.512v135c-0.04,8.29-6.78,15-15.08,15    c-21.038-0.084-24.039,0.221-29.92-0.35c-42.05-3.78-75-39.12-75-82.15c0-45.559,36.939-82.5,82.5-82.5h22.42    C121.719,127.512,128.459,134.222,128.499,142.512z"/><g><path style="fill:#487FE9;" d="M349.749,45.012c-15.829,0-30.556,10.987-42.565,31.38c-40.147,37.805-92.575,58.62-147.754,58.62     h-24.745c-3.123-8.733-11.477-15-21.269-15H90.999c-49.626,0-90,40.374-90,90c0,44.516,32.489,81.58,75,88.743v130.757     c0,20.664,16.812,37.476,37.476,37.476c16.58,0,31.382-11.122,35.996-27.048c0.153-0.528-1.214,6.019,31.492-153.854     c47.177,4.684,91.337,24.697,126.222,57.547c12.009,20.393,26.736,31.38,42.565,31.38c20.288,0,38.767-18.047,52.03-50.817     c25.64-63.347,25.647-165.001,0-228.365C388.516,63.059,370.037,45.012,349.749,45.012z M15.999,210.012     c0-41.356,33.645-75,75-75h22.417c4.182,0,7.583,3.401,7.583,7.583v134.834c0,4.182-3.401,7.583-7.583,7.583H90.999     C49.644,285.012,15.999,251.368,15.999,210.012z M134.984,436.034c-2.855,9.407-11.658,15.954-21.509,15.954     c-12.393,0-22.476-10.082-22.476-22.476v-129.5h22.417c9.793,0,18.147-6.267,21.269-15c23.735,0.035,24.827-0.081,31.166,0.105     L134.984,436.034z M159.431,270.012h-23.432v-120h23.432c48.623,0,95.246-15.115,134.177-43.048     c-20.157,59.767-20.158,146.324-0.001,206.094C254.677,285.127,208.052,270.012,159.431,270.012z M296.03,166.142     c20.083,4.59,34.969,22.667,34.969,43.87c0,21.188-14.867,39.255-34.93,43.86C292.653,225.308,292.631,194.707,296.03,166.142z      M387.875,318.568c-10.661,26.338-24.558,41.444-38.126,41.444s-27.465-15.106-38.126-41.444     c-5.931-14.653-10.407-31.641-13.43-49.809c27.374-5.678,47.806-30.069,47.806-58.747c0-28.694-20.455-53.095-47.852-58.756     c4.243-25.541,11.391-48.744,21.466-66.418c9.172-15.966,19.749-24.827,30.136-24.827c13.568,0,27.465,15.106,38.126,41.444     C412.062,161.213,412.061,258.815,387.875,318.568z"/><path style="fill:#487FE9;" d="M443.499,217.512h60c4.143,0,7.5-3.357,7.5-7.5c0-4.143-3.357-7.5-7.5-7.5h-60     c-4.143,0-7.5,3.357-7.5,7.5C435.999,214.155,439.357,217.512,443.499,217.512z"/><path style="fill:#487FE9;" d="M446.854,171.72l60-30c3.704-1.852,5.206-6.357,3.354-10.063     c-1.851-3.704-6.355-5.204-10.063-3.354l-60,30c-3.704,1.852-5.206,6.357-3.354,10.063     C438.63,172.046,443.121,173.585,446.854,171.72z"/><path style="fill:#487FE9;" d="M506.854,278.304l-60-30c-3.706-1.855-8.211-0.352-10.063,3.354     c-1.852,3.705-0.351,8.21,3.354,10.063l60,30c3.708,1.856,8.213,0.347,10.063-3.354     C512.06,284.662,510.558,280.157,506.854,278.304z"/></g></g></g><g id="Layer_1"/></svg>