<?xml version="1.0" encoding="UTF-8"?> <svg xmlns="http://www.w3.org/2000/svg" width="152" height="146" viewBox="0 0 152 146" fill="none"><path fill-rule="evenodd" clip-rule="evenodd" d="M118.892 61.7375C130.487 67.8477 141.632 68.6402 147.566 62.7065C156.367 53.9059 150.372 33.6423 134.176 17.4465C117.98 1.25061 97.7162 -4.74447 88.9157 4.05609C82.9633 10.0085 83.7794 21.2048 89.9424 32.8396C63.457 13.2711 35.0822 7.83001 21.4695 21.4427C9.25896 33.6533 12.3791 57.7414 27.2745 81.6892C17.7357 77.9938 9.05018 78.2233 4.05609 83.2174C-4.74447 92.018 1.25061 112.282 17.4465 128.477C33.6423 144.673 53.9059 150.668 62.7065 141.868C67.2326 137.342 67.8452 129.784 65.1694 121.306C90.7086 138.988 117.371 143.473 130.436 130.409C144.082 116.762 138.58 88.2794 118.892 61.7375Z" fill="#720EEC"></path></svg> 