<?xml version="1.0" encoding="UTF-8"?> <svg xmlns="http://www.w3.org/2000/svg" width="550" height="550" viewBox="0 0 550 550" fill="none"><g clip-path="url(#clip0_2289_7852)"><rect width="550" height="550" rx="16" fill="#FF45E3"></rect><path d="M542.837 223.541C585.864 180.513 557.769 82.6345 480.068 4.94529C402.366 -72.7583 304.505 -100.868 261.463 -57.8397C234.377 -30.7528 235.486 18.0495 259.375 69.8759C138.676 -14.3942 11.2659 -35.3753 -51.5607 27.4384C-114.387 90.2666 -93.4067 217.665 -9.12432 338.382C-60.9494 314.478 -109.751 313.384 -136.837 340.47C-179.863 383.498 -151.769 481.376 -74.0677 559.066C3.63394 636.769 101.495 664.864 144.522 621.836C171.608 594.749 170.5 545.947 146.61 494.121C267.324 578.391 394.734 599.372 457.546 536.558C520.373 473.73 499.392 346.331 415.11 225.614C466.935 249.519 515.736 250.613 542.822 223.526L542.837 223.541Z" fill="#4E0061"></path><path d="M63.44 142H57.44V101.98H63.44V142ZM96.0214 142H90.6214V123.46C90.6214 118.66 88.1614 117.1 84.4414 117.1C81.0814 117.1 78.0214 119.14 76.4614 121.3V142H71.0614V113.02H76.4614V117.1C78.3814 114.76 82.2214 112.3 86.7214 112.3C92.8414 112.3 96.0214 115.54 96.0214 121.66V142ZM101.577 127.48C101.577 118.78 107.577 112.3 116.337 112.3C121.797 112.3 125.097 114.58 127.197 117.4L123.597 120.7C121.857 118.24 119.517 117.1 116.577 117.1C110.877 117.1 107.217 121.48 107.217 127.48C107.217 133.48 110.877 137.92 116.577 137.92C119.517 137.92 121.857 136.72 123.597 134.32L127.197 137.62C125.097 140.44 121.797 142.72 116.337 142.72C107.577 142.72 101.577 136.18 101.577 127.48ZM137.343 142H131.943V113.02H137.343V117.46C139.563 114.58 142.983 112.36 146.823 112.36V117.82C146.283 117.7 145.683 117.64 144.963 117.64C142.263 117.64 138.603 119.68 137.343 121.84V142ZM149.216 127.48C149.216 119.08 155.276 112.3 163.736 112.3C172.436 112.3 177.836 119.08 177.836 127.96V129.28H154.916C155.336 134.2 158.936 138.28 164.756 138.28C167.816 138.28 171.176 137.08 173.336 134.86L175.856 138.4C172.976 141.22 168.896 142.72 164.216 142.72C155.576 142.72 149.216 136.6 149.216 127.48ZM163.736 116.74C157.916 116.74 155.156 121.42 154.856 125.38H172.556C172.436 121.54 169.856 116.74 163.736 116.74ZM209.43 142H204.03V137.86C201.87 140.74 198.39 142.72 194.55 142.72C186.99 142.72 181.59 137.02 181.59 127.54C181.59 118.24 186.99 112.3 194.55 112.3C198.27 112.3 201.75 114.1 204.03 117.22V113.02H209.43V142ZM204.03 133.72V121.42C202.53 119.08 199.29 117.16 195.99 117.16C190.59 117.16 187.23 121.48 187.23 127.54C187.23 133.54 190.59 137.92 195.99 137.92C199.29 137.92 202.53 136.06 204.03 133.72ZM214.358 138.22L216.938 134.26C218.918 136.42 222.758 138.4 226.658 138.4C230.738 138.4 232.898 136.72 232.898 134.26C232.898 131.38 229.598 130.42 225.878 129.58C220.958 128.44 215.198 127.12 215.198 120.88C215.198 116.26 219.158 112.3 226.238 112.3C231.218 112.3 234.818 114.1 237.278 116.44L234.878 120.22C233.198 118.18 229.958 116.68 226.298 116.68C222.638 116.68 220.358 118.12 220.358 120.46C220.358 122.98 223.478 123.82 227.078 124.66C232.118 125.8 238.118 127.18 238.118 133.84C238.118 138.82 234.038 142.72 226.418 142.72C221.558 142.72 217.298 141.22 214.358 138.22ZM241.944 127.48C241.944 119.08 248.004 112.3 256.464 112.3C265.164 112.3 270.564 119.08 270.564 127.96V129.28H247.644C248.064 134.2 251.664 138.28 257.484 138.28C260.544 138.28 263.904 137.08 266.064 134.86L268.584 138.4C265.704 141.22 261.624 142.72 256.944 142.72C248.304 142.72 241.944 136.6 241.944 127.48ZM256.464 116.74C250.644 116.74 247.884 121.42 247.584 125.38H265.284C265.164 121.54 262.584 116.74 256.464 116.74ZM302.158 142H296.758V137.86C294.598 140.74 291.118 142.72 287.278 142.72C279.718 142.72 274.318 137.02 274.318 127.54C274.318 118.24 279.718 112.3 287.278 112.3C290.998 112.3 294.418 114.1 296.758 117.22V101.98H302.158V142ZM296.758 133.72V121.36C295.258 119.02 292.018 117.1 288.718 117.1C283.318 117.1 279.958 121.48 279.958 127.54C279.958 133.54 283.318 137.92 288.718 137.92C292.018 137.92 295.258 136.06 296.758 133.72ZM331.855 142.72C327.295 142.72 324.955 140.14 324.955 135.58V117.76H320.155V113.02H324.955V105.1H330.355V113.02H336.235V117.76H330.355V134.38C330.355 136.42 331.315 137.92 333.175 137.92C334.435 137.92 335.575 137.38 336.115 136.78L337.495 140.86C336.355 141.94 334.675 142.72 331.855 142.72ZM365.975 142H360.575V123.34C360.575 118.54 358.115 117.1 354.395 117.1C351.035 117.1 347.975 119.14 346.415 121.3V142H341.015V101.98H346.415V117.1C348.335 114.76 352.235 112.3 356.675 112.3C362.855 112.3 365.975 115.42 365.975 121.54V142ZM371.589 127.48C371.589 119.08 377.649 112.3 386.109 112.3C394.809 112.3 400.209 119.08 400.209 127.96V129.28H377.289C377.709 134.2 381.309 138.28 387.129 138.28C390.189 138.28 393.549 137.08 395.709 134.86L398.229 138.4C395.349 141.22 391.269 142.72 386.589 142.72C377.949 142.72 371.589 136.6 371.589 127.48ZM386.109 116.74C380.289 116.74 377.529 121.42 377.229 125.38H394.929C394.809 121.54 392.229 116.74 386.109 116.74ZM408.403 108.16C406.543 108.16 404.923 106.66 404.923 104.74C404.923 102.82 406.543 101.26 408.403 101.26C410.323 101.26 411.883 102.82 411.883 104.74C411.883 106.66 410.323 108.16 408.403 108.16ZM411.163 142H405.763V113.02H411.163V142ZM423.967 142H418.567V113.02H423.967V117.46C426.187 114.58 429.607 112.36 433.447 112.36V117.82C432.907 117.7 432.307 117.64 431.587 117.64C428.887 117.64 425.227 119.68 423.967 121.84V142ZM83.36 200H77.96V195.86C75.8 198.74 72.32 200.72 68.48 200.72C60.92 200.72 55.52 195.02 55.52 185.54C55.52 176.24 60.92 170.3 68.48 170.3C72.2 170.3 75.68 172.1 77.96 175.22V171.02H83.36V200ZM77.96 191.72V179.42C76.46 177.08 73.22 175.16 69.92 175.16C64.52 175.16 61.16 179.48 61.16 185.54C61.16 191.54 64.52 195.92 69.92 195.92C73.22 195.92 76.46 194.06 77.96 191.72ZM104.308 200H98.4875L86.5475 171.02H92.3075L101.367 193.76L110.428 171.02H116.248L104.308 200ZM117.632 185.48C117.632 177.08 123.692 170.3 132.152 170.3C140.852 170.3 146.252 177.08 146.252 185.96V187.28H123.332C123.752 192.2 127.352 196.28 133.172 196.28C136.232 196.28 139.592 195.08 141.752 192.86L144.272 196.4C141.392 199.22 137.312 200.72 132.632 200.72C123.992 200.72 117.632 194.6 117.632 185.48ZM132.152 174.74C126.332 174.74 123.572 179.42 123.272 183.38H140.972C140.852 179.54 138.272 174.74 132.152 174.74ZM157.206 200H151.806V171.02H157.206V175.46C159.426 172.58 162.846 170.36 166.686 170.36V175.82C166.146 175.7 165.546 175.64 164.826 175.64C162.126 175.64 158.466 177.68 157.206 179.84V200ZM196.919 200H191.519V195.86C189.359 198.74 185.879 200.72 182.039 200.72C174.479 200.72 169.079 195.02 169.079 185.54C169.079 176.24 174.479 170.3 182.039 170.3C185.759 170.3 189.239 172.1 191.519 175.22V171.02H196.919V200ZM191.519 191.72V179.42C190.019 177.08 186.779 175.16 183.479 175.16C178.079 175.16 174.719 179.48 174.719 185.54C174.719 191.54 178.079 195.92 183.479 195.92C186.779 195.92 190.019 194.06 191.519 191.72ZM204.127 207.44L206.707 203.48C209.107 206.24 212.047 207.32 216.007 207.32C220.507 207.32 225.007 205.16 225.007 199.04V195.26C222.787 198.14 219.367 200.24 215.467 200.24C207.967 200.24 202.567 194.72 202.567 185.24C202.567 175.94 207.967 170.3 215.467 170.3C219.247 170.3 222.667 172.1 225.007 175.22V171.02H230.407V198.86C230.407 208.82 223.147 211.76 216.007 211.76C211.147 211.76 207.607 210.74 204.127 207.44ZM225.007 191.12V179.36C223.507 177.02 220.207 175.1 216.967 175.1C211.567 175.1 208.207 179.3 208.207 185.24C208.207 191.24 211.567 195.44 216.967 195.44C220.207 195.44 223.507 193.46 225.007 191.12ZM235.996 185.48C235.996 177.08 242.056 170.3 250.516 170.3C259.216 170.3 264.616 177.08 264.616 185.96V187.28H241.696C242.116 192.2 245.716 196.28 251.536 196.28C254.596 196.28 257.956 195.08 260.116 192.86L262.636 196.4C259.756 199.22 255.676 200.72 250.996 200.72C242.356 200.72 235.996 194.6 235.996 185.48ZM250.516 174.74C244.696 174.74 241.936 179.42 241.636 183.38H259.336C259.216 179.54 256.636 174.74 250.516 174.74ZM297.279 200.72C288.279 200.72 282.639 193.88 282.639 185.48C282.639 177.14 288.279 170.3 297.279 170.3C306.339 170.3 311.919 177.14 311.919 185.48C311.919 193.88 306.339 200.72 297.279 200.72ZM297.279 195.92C303.099 195.92 306.279 191 306.279 185.48C306.279 180.02 303.099 175.1 297.279 175.1C291.519 175.1 288.279 180.02 288.279 185.48C288.279 191 291.519 195.92 297.279 195.92ZM322.975 200H317.575V171.02H322.975V175.46C325.195 172.58 328.615 170.36 332.455 170.36V175.82C331.915 175.7 331.315 175.64 330.595 175.64C327.895 175.64 324.235 177.68 322.975 179.84V200ZM362.688 200H357.288V195.86C355.128 198.74 351.648 200.72 347.808 200.72C340.248 200.72 334.848 195.02 334.848 185.54C334.848 176.24 340.248 170.3 347.808 170.3C351.528 170.3 354.948 172.1 357.288 175.22V159.98H362.688V200ZM357.288 191.72V179.36C355.788 177.02 352.548 175.1 349.248 175.1C343.848 175.1 340.488 179.48 340.488 185.54C340.488 191.54 343.848 195.92 349.248 195.92C352.548 195.92 355.788 194.06 357.288 191.72ZM368.336 185.48C368.336 177.08 374.396 170.3 382.856 170.3C391.556 170.3 396.956 177.08 396.956 185.96V187.28H374.036C374.456 192.2 378.056 196.28 383.876 196.28C386.936 196.28 390.296 195.08 392.456 192.86L394.976 196.4C392.096 199.22 388.016 200.72 383.336 200.72C374.696 200.72 368.336 194.6 368.336 185.48ZM382.856 174.74C377.036 174.74 374.276 179.42 373.976 183.38H391.676C391.556 179.54 388.976 174.74 382.856 174.74ZM407.91 200H402.51V171.02H407.91V175.46C410.13 172.58 413.55 170.36 417.39 170.36V175.82C416.85 175.7 416.25 175.64 415.53 175.64C412.83 175.64 409.17 177.68 407.91 179.84V200ZM70.82 258H65L53.06 229.02H58.82L67.88 251.76L76.94 229.02H82.76L70.82 258ZM111.984 258H106.584V253.86C104.424 256.74 100.944 258.72 97.1042 258.72C89.5442 258.72 84.1442 253.02 84.1442 243.54C84.1442 234.24 89.5442 228.3 97.1042 228.3C100.824 228.3 104.304 230.1 106.584 233.22V229.02H111.984V258ZM106.584 249.72V237.42C105.084 235.08 101.844 233.16 98.5442 233.16C93.1442 233.16 89.7842 237.48 89.7842 243.54C89.7842 249.54 93.1442 253.92 98.5442 253.92C101.844 253.92 105.084 252.06 106.584 249.72ZM126.332 258.72C121.712 258.72 119.432 256.14 119.432 251.58V217.98H124.832V250.38C124.832 252.42 125.792 253.92 127.652 253.92C128.912 253.92 129.992 253.38 130.532 252.78L131.972 256.86C130.832 257.94 129.092 258.72 126.332 258.72ZM159.832 258H154.432V254.04C152.212 256.44 148.552 258.72 144.112 258.72C137.932 258.72 134.872 255.6 134.872 249.48V229.02H140.272V247.68C140.272 252.48 142.672 253.92 146.392 253.92C149.752 253.92 152.812 252 154.432 249.84V229.02H159.832V258ZM165.388 243.48C165.388 235.08 171.448 228.3 179.908 228.3C188.608 228.3 194.008 235.08 194.008 243.96V245.28H171.088C171.508 250.2 175.108 254.28 180.928 254.28C183.988 254.28 187.348 253.08 189.508 250.86L192.028 254.4C189.148 257.22 185.068 258.72 180.388 258.72C171.748 258.72 165.388 252.6 165.388 243.48ZM179.908 232.74C174.088 232.74 171.328 237.42 171.028 241.38H188.728C188.608 237.54 186.028 232.74 179.908 232.74ZM219.231 258H213.831V217.98H219.231V233.22C221.511 230.1 224.931 228.3 228.711 228.3C236.271 228.3 241.611 234.24 241.611 243.54C241.611 253.02 236.211 258.72 228.711 258.72C224.811 258.72 221.391 256.74 219.231 253.86V258ZM219.231 237.42V249.72C220.671 252.06 223.971 253.92 227.271 253.92C232.671 253.92 236.031 249.6 236.031 243.54C236.031 237.48 232.671 233.1 227.271 233.1C223.971 233.1 220.671 235.08 219.231 237.42ZM246.958 265.44L249.538 261.48C251.758 264.18 254.998 265.32 258.358 265.32C263.698 265.32 266.878 262.26 266.878 256.92V253.26C264.658 255.72 260.998 257.94 256.558 257.94C250.378 257.94 247.318 254.88 247.318 248.76V229.02H252.718V246.9C252.718 251.7 255.118 253.14 258.838 253.14C262.198 253.14 265.258 251.22 266.878 249.06V229.02H272.278V256.92C272.278 265.56 266.098 269.76 258.358 269.76C253.498 269.76 250.018 268.38 246.958 265.44Z" fill="white"></path><path d="M126.08 394H60.28V382.94C95.28 356.06 111.38 342.06 111.38 327.36C111.38 316.44 102.28 311.68 93.18 311.68C82.12 311.68 73.58 316.3 67.84 323.16L59.58 314.06C67.28 304.4 80.02 299.22 93.04 299.22C109.84 299.22 125.66 308.74 125.66 327.36C125.66 345.56 108.16 361.94 82.54 381.68H126.08V394ZM205.995 394H140.195V382.94C175.195 356.06 191.295 342.06 191.295 327.36C191.295 316.44 182.195 311.68 173.095 311.68C162.035 311.68 153.495 316.3 147.755 323.16L139.495 314.06C147.195 304.4 159.935 299.22 172.955 299.22C189.755 299.22 205.575 308.74 205.575 327.36C205.575 345.56 188.075 361.94 162.455 381.68H205.995V394ZM216.13 337.79C216.13 327.45 223.28 319.53 233.95 319.53C244.73 319.53 251.99 327.45 251.99 337.79C251.99 348.02 244.73 355.83 233.95 355.83C223.28 355.83 216.13 348.02 216.13 337.79ZM233.62 394H227.02L273.88 320.63H280.59L233.62 394ZM244.4 337.79C244.4 330.97 240.11 326.02 233.95 326.02C227.9 326.02 223.61 330.97 223.61 337.79C223.61 344.39 227.9 349.45 233.95 349.45C240.11 349.45 244.4 344.39 244.4 337.79ZM254.96 377.28C254.96 366.94 262.22 359.02 272.89 359.02C283.56 359.02 290.82 366.94 290.82 377.28C290.82 387.51 283.56 395.32 272.89 395.32C262.22 395.32 254.96 387.51 254.96 377.28ZM283.34 377.28C283.34 370.46 279.05 365.51 272.89 365.51C266.73 365.51 262.44 370.46 262.44 377.28C262.44 383.99 266.73 388.94 272.89 388.94C279.05 388.94 283.34 383.99 283.34 377.28Z" fill="#FCA8FF"></path></g><defs><clipPath id="clip0_2289_7852"><rect width="550" height="550" rx="16" fill="white"></rect></clipPath></defs></svg> 